<svg width="121" height="18" viewBox="0 0 121 18" fill="none" xmlns="http://www.w3.org/2000/svg">
<path d="M14.299 13.9169C14.5053 14.5122 14.6968 14.9605 14.8736 15.262C15.0578 15.5559 15.2788 15.7668 15.5366 15.8949C15.8018 16.0155 16.1591 16.1059 16.6085 16.1662V17.1609H9.42585V16.1662C10.0005 16.0833 10.4167 15.9741 10.6745 15.8384C10.9397 15.7028 11.076 15.488 11.0834 15.1941C11.0981 14.8927 11.006 14.4557 10.8071 13.883L7.11635 2.89628H7.54731L3.90073 13.883C3.71656 14.4557 3.62447 14.8927 3.62447 15.1941C3.63184 15.488 3.76444 15.7028 4.02228 15.8384C4.28749 15.9741 4.7074 16.0833 5.28201 16.1662V17.1609H0V16.1662C0.471476 16.1059 0.836134 16.0117 1.09397 15.8836C1.35918 15.7555 1.5765 15.537 1.74594 15.2281C1.92274 14.9191 2.12533 14.4594 2.3537 13.8491L7.00584 0.839096H9.6358L14.299 13.9169ZM3.94493 11.7128L4.37589 10.4694H11.0613L11.5364 11.7128H3.94493Z" fill="#0A0A0A"/>
<path d="M30.9075 5.22473C30.9075 5.94814 30.7528 6.58488 30.4434 7.13497C30.134 7.68506 29.7141 8.13719 29.1837 8.49136C28.6606 8.83799 28.0786 9.07535 27.4377 9.20346V8.53657L29.7914 13.1935C30.2187 13.9998 30.5723 14.6102 30.8522 15.0246C31.1322 15.4391 31.3753 15.7292 31.5816 15.8949C31.7878 16.0607 32.0015 16.17 32.2225 16.2227V17.1609H28.3549L24.7857 9.97207H22.3988V14.7985C22.3988 15.1226 22.4393 15.3712 22.5204 15.5445C22.6014 15.7179 22.7635 15.8497 23.0066 15.9402C23.2497 16.0306 23.6254 16.1059 24.1337 16.1662V17.1609H17.2384V16.1662C17.7835 16.0984 18.185 16.0193 18.4428 15.9289C18.708 15.8384 18.8775 15.7028 18.9511 15.5219C19.0322 15.3411 19.0727 15.0811 19.0727 14.742V3.25798C19.0727 2.91888 19.0322 2.65891 18.9511 2.47806C18.8775 2.29721 18.708 2.16157 18.4428 2.07114C18.185 1.98072 17.7835 1.9016 17.2384 1.83378V0.839096H24.4652C25.8944 0.839096 27.0841 1.01995 28.0344 1.38165C28.9921 1.73582 29.7067 2.24069 30.1782 2.89628C30.657 3.55186 30.9001 4.32801 30.9075 5.22473ZM27.6035 5.4734C27.6035 4.77261 27.4524 4.16977 27.1504 3.66489C26.8557 3.16002 26.4137 2.77194 25.8244 2.50066C25.235 2.22185 24.4873 2.06361 23.5812 2.02593L22.3988 1.99202V8.83045L23.8022 8.78524C25.0103 8.74756 25.9459 8.45368 26.6089 7.90359C27.272 7.3535 27.6035 6.54344 27.6035 5.4734Z" fill="#0A0A0A"/>
<path d="M46.8972 0.839096L47.0298 5.17952H46.1126C45.9579 4.31294 45.7443 3.66113 45.4717 3.22407C45.2065 2.78701 44.8087 2.48936 44.2783 2.33112C43.7479 2.16534 43.0075 2.05984 42.0572 2.01463L41.4605 1.99202V14.5838C41.4605 14.953 41.5047 15.2431 41.5931 15.4541C41.6888 15.6576 41.8767 15.8121 42.1566 15.9176C42.4366 16.0155 42.8675 16.0984 43.4495 16.1662V17.1609H36.1453V16.1662C36.7346 16.0984 37.1693 16.0155 37.4492 15.9176C37.7365 15.8121 37.9207 15.6576 38.0017 15.4541C38.0901 15.2431 38.1343 14.953 38.1343 14.5838V1.99202L37.5487 2.01463C36.5984 2.05984 35.858 2.16534 35.3276 2.33112C34.7972 2.48936 34.3957 2.78701 34.1231 3.22407C33.8579 3.66113 33.6479 4.31294 33.4932 5.17952H32.5761L32.7087 0.839096H46.8972Z" fill="#0A0A0A"/>
<path d="M61.9586 5.22473C61.9586 5.94814 61.8039 6.58488 61.4945 7.13497C61.1851 7.68506 60.7652 8.13719 60.2348 8.49136C59.7118 8.83799 59.1298 9.07535 58.4889 9.20346V8.53657L60.8426 13.1935C61.2698 13.9998 61.6234 14.6102 61.9034 15.0246C62.1833 15.4391 62.4264 15.7292 62.6327 15.8949C62.839 16.0607 63.0526 16.17 63.2736 16.2227V17.1609H59.406L55.8368 9.97207H53.45V14.7985C53.45 15.1226 53.4905 15.3712 53.5715 15.5445C53.6525 15.7179 53.8146 15.8497 54.0577 15.9402C54.3008 16.0306 54.6765 16.1059 55.1848 16.1662V17.1609H48.2895V16.1662C48.8346 16.0984 49.2361 16.0193 49.494 15.9289C49.7592 15.8384 49.9286 15.7028 50.0023 15.5219C50.0833 15.3411 50.1238 15.0811 50.1238 14.742V3.25798C50.1238 2.91888 50.0833 2.65891 50.0023 2.47806C49.9286 2.29721 49.7592 2.16157 49.494 2.07114C49.2361 1.98072 48.8346 1.9016 48.2895 1.83378V0.839096H55.5163C56.9455 0.839096 58.1353 1.01995 59.0856 1.38165C60.0433 1.73582 60.7578 2.24069 61.2293 2.89628C61.7082 3.55186 61.9513 4.32801 61.9586 5.22473ZM58.6546 5.4734C58.6546 4.77261 58.5036 4.16977 58.2016 3.66489C57.9069 3.16002 57.4649 2.77194 56.8755 2.50066C56.2862 2.22185 55.5384 2.06361 54.6323 2.02593L53.45 1.99202V8.83045L54.8533 8.78524C56.0615 8.74756 56.9971 8.45368 57.6601 7.90359C58.3231 7.3535 58.6546 6.54344 58.6546 5.4734Z" fill="#0A0A0A"/>
<path d="M63.9256 9.0113C63.9256 7.8207 64.1208 6.71299 64.5112 5.68816C64.909 4.65581 65.4763 3.75155 66.213 2.9754C66.9496 2.19171 67.83 1.58511 68.854 1.15559C69.8853 0.718528 71.0346 0.5 72.3016 0.5C73.4214 0.5 74.4785 0.695922 75.4731 1.08777C76.4749 1.47961 77.3626 2.04854 78.1362 2.79455C78.9097 3.53302 79.5174 4.42221 79.9594 5.4621C80.4015 6.50199 80.6225 7.67753 80.6225 8.9887C80.6225 10.1718 80.4236 11.2795 80.0258 12.3118C79.6353 13.3442 79.0717 14.2522 78.3351 15.0359C77.6058 15.8121 76.7254 16.4187 75.6941 16.8557C74.6701 17.2852 73.5245 17.5 72.2574 17.5C71.1377 17.5 70.0769 17.3041 69.075 16.9122C68.0731 16.5204 67.1854 15.9552 66.4119 15.2168C65.6457 14.4707 65.038 13.5778 64.5886 12.5379C64.1466 11.498 63.9256 10.3225 63.9256 9.0113ZM67.6163 8.80785C67.6163 9.81006 67.7269 10.752 67.9479 11.6336C68.1689 12.5153 68.4856 13.2914 68.8982 13.9621C69.3107 14.6328 69.8117 15.1602 70.401 15.5445C70.9903 15.9213 71.657 16.1097 72.4011 16.1097C73.4693 16.1097 74.3349 15.8008 74.9979 15.1828C75.6609 14.5649 76.1471 13.736 76.4565 12.6961C76.7733 11.6487 76.9317 10.4807 76.9317 9.19215C76.9317 8.18994 76.8212 7.24801 76.6002 6.36636C76.3865 5.48471 76.0698 4.70855 75.6499 4.0379C75.2373 3.36724 74.7364 2.84353 74.147 2.46676C73.5577 2.08245 72.891 1.89029 72.1469 1.89029C71.0861 1.89029 70.2205 2.19925 69.5501 2.81715C68.8871 3.43506 68.3972 4.26773 68.0805 5.31516C67.771 6.35505 67.6163 7.51928 67.6163 8.80785Z" fill="#0A0A0A"/>
<path d="M82.7773 9.0113C82.7773 7.8207 82.9725 6.71299 83.3629 5.68816C83.7607 4.65581 84.328 3.75155 85.0647 2.9754C85.8013 2.19171 86.6817 1.58511 87.7057 1.15559C88.737 0.718528 89.8862 0.5 91.1533 0.5C92.2731 0.5 93.3302 0.695922 94.3247 1.08777C95.3266 1.47961 96.2143 2.04854 96.9879 2.79455C97.7614 3.53302 98.3691 4.42221 98.8111 5.4621C99.2532 6.50199 99.4742 7.67753 99.4742 8.9887C99.4742 10.1718 99.2753 11.2795 98.8774 12.3118C98.487 13.3442 97.9234 14.2522 97.1868 15.0359C96.4574 15.8121 95.5771 16.4187 94.5458 16.8557C93.5218 17.2852 92.3762 17.5 91.1091 17.5C89.9894 17.5 88.9286 17.3041 87.9267 16.9122C86.9248 16.5204 86.0371 15.9552 85.2636 15.2168C84.4974 14.4707 83.8896 13.5778 83.4403 12.5379C82.9983 11.498 82.7773 10.3225 82.7773 9.0113ZM86.468 8.80785C86.468 9.81006 86.5785 10.752 86.7995 11.6336C87.0205 12.5153 87.3373 13.2914 87.7499 13.9621C88.1624 14.6328 88.6633 15.1602 89.2527 15.5445C89.842 15.9213 90.5087 16.1097 91.2528 16.1097C92.321 16.1097 93.1866 15.8008 93.8496 15.1828C94.5126 14.5649 94.9988 13.736 95.3082 12.6961C95.625 11.6487 95.7834 10.4807 95.7834 9.19215C95.7834 8.18994 95.6729 7.24801 95.4519 6.36636C95.2382 5.48471 94.9215 4.70855 94.5015 4.0379C94.089 3.36724 93.5881 2.84353 92.9987 2.46676C92.4094 2.08245 91.7427 1.89029 90.9986 1.89029C89.9378 1.89029 89.0722 2.19925 88.4018 2.81715C87.7388 3.43506 87.2489 4.26773 86.9321 5.31516C86.6227 6.35505 86.468 7.51928 86.468 8.80785Z" fill="#0A0A0A"/>
<path d="M106.524 0.839096L111.198 14.1543H110.779L115.022 0.827793L120.735 0.839096V1.83378C120.197 1.89406 119.792 1.97318 119.519 2.07114C119.254 2.16157 119.081 2.29721 119 2.47806C118.919 2.65891 118.882 2.91888 118.889 3.25798L119.155 14.742C119.162 15.0811 119.202 15.3411 119.276 15.5219C119.357 15.7028 119.527 15.8422 119.784 15.9402C120.05 16.0306 120.455 16.1059 121 16.1662V17.1609H114.116V16.1662C114.631 16.1059 115.014 16.0344 115.265 15.9515C115.515 15.861 115.677 15.7292 115.751 15.5559C115.825 15.375 115.858 15.1226 115.851 14.7985L115.596 2.16157H116.005L112.259 12.9787L110.845 17.1609H109.022L103.618 2.15027H104.016V14.5273C104.016 14.9266 104.053 15.2318 104.126 15.4428C104.207 15.6538 104.369 15.8121 104.613 15.9176C104.863 16.0155 105.25 16.0984 105.773 16.1662V17.1609H100.723V16.1662C101.231 16.0984 101.607 16.0155 101.85 15.9176C102.093 15.8196 102.251 15.6651 102.325 15.4541C102.406 15.2431 102.45 14.9455 102.458 14.5612L102.723 3.49535C102.73 3.1035 102.693 2.80208 102.612 2.59109C102.539 2.37256 102.373 2.21055 102.115 2.10505C101.865 1.99202 101.489 1.9016 100.988 1.83378V0.839096H106.524Z" fill="#0A0A0A"/>
</svg>
