<svg width="21"
                                      height="33"
                                      viewBox="0 0 21 33"
                                      fill="none"
                                      xmlns="http://www.w3.org/2000/svg">
                                      <!-- <path fill-rule="evenodd"
                                        clip-rule="evenodd"
                                        d="M10.5 0C16.0228 0 20.5 4.47715 20.5 10C20.5 15.2016 16.5285 19.4757 11.4524 19.9552V30.4762C11.4524 31.0022 11.026 31.4286 10.5 31.4286C9.97401 31.4286 9.54762 31.0022 9.54762 30.4762V19.9552C4.47149 19.4757 0.5 15.2016 0.5 10C0.5 4.47715 4.97715 0 10.5 0Z"
                                        fill="black" /> --> 
                                      <path fill-rule="evenodd"
                                        clip-rule="evenodd"
                                        d="M10.5 0C16.0228 0 20.5 4.47715 20.5 10C20.5 15.2016 16.5285 19.4757 11.4524 19.9552V30.4762C11.4524 31.0022 11.026 31.4286 10.5 31.4286C9.97401 31.4286 9.54762 31.0022 9.54762 30.4762V19.9552C4.47149 19.4757 0.5 15.2016 0.5 10C0.5 4.47715 4.97715 0 10.5 0Z"
                                        fill="#8B5CF6" />
                                      <path
                                        d="M13.8327 9.99984C13.8327 8.15889 12.3403 6.6665 10.4993 6.6665C8.6584 6.6665 7.16602 8.15889 7.16602 9.99984C7.16602 11.8408 8.6584 13.3332 10.4993 13.3332C12.3403 13.3332 13.8327 11.8408 13.8327 9.99984Z"
                                        fill="white" />
                                      <path opacity="0.3"
                                        d="M10.5001 32.381C11.8151 32.381 12.881 31.848 12.881 31.1905C12.881 30.533 11.8151 30 10.5001 30C9.18513 30 8.11914 30.533 8.11914 31.1905C8.11914 31.848 9.18513 32.381 10.5001 32.381Z"
                                        fill="black" />
                                    </svg>